<svg xmlns="http://www.w3.org/2000/svg" xmlns:xlink="http://www.w3.org/1999/xlink" width="1280" zoomAndPan="magnify" viewBox="0 0 960 540.000001" height="720" preserveAspectRatio="xMidYMid meet" version="1.2"><defs><clipPath id="fc2788f8bf"><path d="M 277.398438 159 L 525 159 L 525 277 L 277.398438 277 Z M 277.398438 159 "/></clipPath><clipPath id="fea9d25a96"><path d="M 357 112.320312 L 445 112.320312 L 445 269 L 357 269 Z M 357 112.320312 "/></clipPath></defs><g id="f85635c410"><path style=" stroke:none;fill-rule:evenodd;fill:#013e88;fill-opacity:1;" d="M 391.410156 275.003906 C 382.503906 271.859375 373.835938 267.867188 365.574219 263.007812 C 316.617188 234.210938 296.882812 183.773438 312.890625 139.671875 C 320.671875 138.765625 328.578125 138.445312 336.511719 138.714844 C 317.898438 176.671875 326.65625 222.570312 363.414062 255.636719 C 371.898438 263.269531 381.332031 269.730469 391.410156 275.003906 Z M 411.152344 275.003906 C 420.0625 271.859375 428.730469 267.867188 436.988281 263.007812 C 485.945312 234.210938 505.679688 183.773438 489.675781 139.671875 C 481.894531 138.765625 473.984375 138.445312 466.054688 138.714844 C 484.667969 176.671875 475.902344 222.570312 439.148438 255.636719 C 430.664062 263.269531 421.226562 269.730469 411.152344 275.003906 "/><path style=" stroke:none;fill-rule:evenodd;fill:#013e88;fill-opacity:1;" d="M 393.359375 271.957031 C 384.78125 267.113281 376.714844 261.378906 369.359375 254.765625 C 328.632812 218.125 322.273438 165.726562 349.445312 125.84375 C 358.59375 126.4375 367.695312 127.816406 376.605469 129.96875 C 349.496094 161.402344 344.304688 204.546875 367.585938 242.550781 C 374.421875 253.710938 383.1875 263.5625 393.359375 271.957031 Z M 409.203125 271.957031 C 417.78125 267.113281 425.847656 261.378906 433.203125 254.765625 C 473.929688 218.125 480.289062 165.726562 453.117188 125.84375 C 443.972656 126.4375 434.863281 127.816406 425.957031 129.96875 C 453.066406 161.402344 458.257812 204.546875 434.976562 242.550781 C 428.136719 253.710938 419.375 263.5625 409.203125 271.957031 "/><g clip-rule="nonzero" clip-path="url(#fc2788f8bf)"><path style=" stroke:none;fill-rule:evenodd;fill:#013e88;fill-opacity:1;" d="M 385.328125 276.792969 C 380.476562 275.894531 375.625 274.765625 370.792969 273.394531 C 314.355469 257.359375 277.996094 213.347656 277.6875 166.835938 C 285.828125 163.660156 294.394531 161.191406 303.246094 159.484375 C 297.429688 198.804688 317.898438 240.121094 360.40625 265.125 C 368.386719 269.820312 376.742188 273.699219 385.328125 276.792969 Z M 417.234375 276.792969 C 422.085938 275.894531 426.941406 274.765625 431.769531 273.394531 C 488.207031 257.359375 524.566406 213.347656 524.875 166.835938 C 516.738281 163.660156 508.167969 161.191406 499.3125 159.484375 C 505.132812 198.804688 484.660156 240.121094 442.15625 265.125 C 434.175781 269.820312 425.820312 273.699219 417.234375 276.792969 "/></g><g clip-rule="nonzero" clip-path="url(#fea9d25a96)"><path style=" stroke:none;fill-rule:evenodd;fill:#013e88;fill-opacity:1;" d="M 401.28125 130.59375 C 363.75 173.175781 352.761719 203.558594 395.160156 268.746094 C 386.601562 261.097656 379.160156 252.351562 373.1875 242.605469 C 343.785156 194.609375 358.484375 149.457031 401.28125 112.300781 C 444.078125 149.457031 458.777344 194.609375 429.375 242.605469 C 423.402344 252.351562 415.960938 261.097656 407.402344 268.746094 C 449.800781 203.558594 438.816406 173.175781 401.28125 130.59375 "/></g><path style=" stroke:none;fill-rule:evenodd;fill:#013e88;fill-opacity:1;" d="M 373.445312 186.265625 L 373.445312 178.082031 L 397.1875 178.082031 L 397.1875 157.117188 L 405.375 157.117188 L 405.375 178.082031 L 429.121094 178.082031 L 429.121094 186.265625 L 405.375 186.265625 L 405.375 274.59375 L 397.1875 274.59375 L 397.1875 186.265625 L 373.445312 186.265625 "/><g style="fill:#013e88;fill-opacity:1;"><g transform="translate(89.141073, 361.023163)"><path style="stroke:none" d="M 10.40625 -85.828125 L 19.015625 -85.828125 L 19.015625 0 L 10.40625 0 Z M 10.40625 -85.828125 "/></g></g><g style="fill:#013e88;fill-opacity:1;"><g transform="translate(116.158034, 361.023163)"><path style="stroke:none" d="M 17.6875 -63.484375 L 17.6875 -52.125 C 24.300781 -60.8125 32.234375 -65.15625 41.484375 -65.15625 C 46.179688 -65.15625 50.300781 -64.054688 53.84375 -61.859375 C 57.394531 -59.671875 60.144531 -56.363281 62.09375 -51.9375 C 64.050781 -47.519531 65.03125 -42.082031 65.03125 -35.625 L 65.03125 0 L 56.90625 0 L 56.90625 -34.546875 C 56.90625 -42.273438 55.566406 -48.070312 52.890625 -51.9375 C 50.222656 -55.800781 45.898438 -57.734375 39.921875 -57.734375 C 36.023438 -57.734375 32.378906 -56.65625 28.984375 -54.5 C 25.597656 -52.351562 22.867188 -49.226562 20.796875 -45.125 C 18.722656 -41.019531 17.6875 -36.140625 17.6875 -30.484375 L 17.6875 0 L 9.5625 0 L 9.5625 -63.484375 Z M 17.6875 -63.484375 "/></g></g><g style="fill:#013e88;fill-opacity:1;"><g transform="translate(187.286829, 361.023163)"><path style="stroke:none" d="M 13.15625 -76.15625 C 11.320312 -76.15625 9.742188 -76.832031 8.421875 -78.1875 C 7.109375 -79.539062 6.453125 -81.132812 6.453125 -82.96875 C 6.453125 -84.875 7.109375 -86.460938 8.421875 -87.734375 C 9.742188 -89.015625 11.320312 -89.65625 13.15625 -89.65625 C 14.988281 -89.65625 16.582031 -89 17.9375 -87.6875 C 19.289062 -86.375 19.96875 -84.800781 19.96875 -82.96875 C 19.96875 -81.132812 19.289062 -79.539062 17.9375 -78.1875 C 16.582031 -76.832031 14.988281 -76.15625 13.15625 -76.15625 Z M 9.203125 -63.484375 L 17.328125 -63.484375 L 17.328125 0 L 9.203125 0 Z M 9.203125 -63.484375 "/></g></g><g style="fill:#013e88;fill-opacity:1;"><g transform="translate(211.434725, 361.023163)"><path style="stroke:none" d="M 39.6875 1.671875 C 33.226562 1.671875 27.445312 0.195312 22.34375 -2.75 C 17.25 -5.695312 13.265625 -9.71875 10.390625 -14.8125 C 7.523438 -19.914062 6.09375 -25.578125 6.09375 -31.796875 C 6.09375 -38.097656 7.546875 -43.773438 10.453125 -48.828125 C 13.367188 -53.890625 17.414062 -57.875 22.59375 -60.78125 C 27.769531 -63.695312 33.546875 -65.15625 39.921875 -65.15625 C 45.984375 -65.15625 51.503906 -63.9375 56.484375 -61.5 C 61.460938 -59.070312 65.46875 -55.707031 68.5 -51.40625 L 62.515625 -46.265625 C 59.492188 -49.929688 56.128906 -52.679688 52.421875 -54.515625 C 48.710938 -56.347656 44.425781 -57.265625 39.5625 -57.265625 C 34.78125 -57.265625 30.5 -56.144531 26.71875 -53.90625 C 22.9375 -51.675781 19.945312 -48.628906 17.75 -44.765625 C 15.5625 -40.898438 14.46875 -36.578125 14.46875 -31.796875 C 14.46875 -26.859375 15.539062 -22.4375 17.6875 -18.53125 C 19.84375 -14.625 22.851562 -11.59375 26.71875 -9.4375 C 30.582031 -7.289062 34.90625 -6.21875 39.6875 -6.21875 C 48.9375 -6.21875 56.546875 -9.800781 62.515625 -16.96875 L 68.625 -12.1875 C 65.195312 -7.8125 61.03125 -4.40625 56.125 -1.96875 C 51.226562 0.457031 45.75 1.671875 39.6875 1.671875 Z M 39.6875 1.671875 "/></g></g><g style="fill:#013e88;fill-opacity:1;"><g transform="translate(283.041695, 361.023163)"><path style="stroke:none" d="M 15.90625 -76.15625 C 14.070312 -76.15625 12.492188 -76.832031 11.171875 -78.1875 C 9.859375 -79.539062 9.203125 -81.132812 9.203125 -82.96875 C 9.203125 -84.800781 9.859375 -86.375 11.171875 -87.6875 C 12.492188 -89 14.070312 -89.65625 15.90625 -89.65625 C 17.738281 -89.65625 19.332031 -89 20.6875 -87.6875 C 22.039062 -86.375 22.71875 -84.800781 22.71875 -82.96875 C 22.71875 -81.132812 22.039062 -79.539062 20.6875 -78.1875 C 19.332031 -76.832031 17.738281 -76.15625 15.90625 -76.15625 Z M 9.203125 24.984375 C 7.609375 24.984375 6.070312 24.800781 4.59375 24.4375 C 3.125 24.082031 1.59375 23.585938 0 22.953125 L 0 15.546875 C 2.070312 16.578125 4.023438 17.09375 5.859375 17.09375 C 7.773438 17.09375 9.269531 16.453125 10.34375 15.171875 C 11.414062 13.898438 11.953125 12.03125 11.953125 9.5625 L 11.953125 -63.484375 L 20.078125 -63.484375 L 20.078125 9.5625 C 20.078125 19.84375 16.453125 24.984375 9.203125 24.984375 Z M 9.203125 24.984375 "/></g></g><g style="fill:#013e88;fill-opacity:1;"><g transform="translate(309.939104, 361.023163)"><path style="stroke:none" d="M 38.609375 1.546875 C 32.554688 1.546875 27.054688 0.0351562 22.109375 -2.984375 C 17.171875 -6.015625 13.265625 -10.097656 10.390625 -15.234375 C 7.523438 -20.378906 6.09375 -25.941406 6.09375 -31.921875 C 6.09375 -37.898438 7.546875 -43.414062 10.453125 -48.46875 C 13.367188 -53.53125 17.335938 -57.578125 22.359375 -60.609375 C 27.378906 -63.640625 32.878906 -65.15625 38.859375 -65.15625 C 44.035156 -65.15625 48.773438 -64.035156 53.078125 -61.796875 C 57.378906 -59.566406 61.085938 -56.265625 64.203125 -51.890625 L 64.203125 -63.484375 L 72.203125 -63.484375 L 72.203125 0 L 64.203125 0 L 64.203125 -10.875 C 60.773438 -6.726562 56.90625 -3.617188 52.59375 -1.546875 C 48.289062 0.515625 43.628906 1.546875 38.609375 1.546875 Z M 39.453125 -5.859375 C 43.835938 -5.859375 47.976562 -6.910156 51.875 -9.015625 C 55.78125 -11.128906 58.910156 -14.117188 61.265625 -17.984375 C 63.617188 -21.859375 64.796875 -26.34375 64.796875 -31.4375 C 64.796875 -36.300781 63.675781 -40.6875 61.4375 -44.59375 C 59.207031 -48.5 56.179688 -51.585938 52.359375 -53.859375 C 48.535156 -56.128906 44.269531 -57.265625 39.5625 -57.265625 C 34.863281 -57.265625 30.582031 -56.085938 26.71875 -53.734375 C 22.851562 -51.378906 19.84375 -48.25 17.6875 -44.34375 C 15.539062 -40.445312 14.46875 -36.226562 14.46875 -31.6875 C 14.46875 -27.132812 15.5625 -22.882812 17.75 -18.9375 C 19.945312 -15 22.957031 -11.832031 26.78125 -9.4375 C 30.601562 -7.050781 34.828125 -5.859375 39.453125 -5.859375 Z M 39.453125 -5.859375 "/></g></g><g style="fill:#013e88;fill-opacity:1;"><g transform="translate(389.435988, 361.023163)"><path style="stroke:none" d="M 16.015625 -87.984375 L 16.015625 0 L 7.890625 0 L 7.890625 -87.984375 Z M 16.015625 -87.984375 "/></g></g><g style="fill:#013e88;fill-opacity:1;"><g transform="translate(411.073454, 361.023163)"><path style="stroke:none" d="M 54.15625 -63.484375 L 62.640625 -63.484375 L 24.75 23.1875 L 16.140625 23.1875 L 28.453125 -4.296875 L 2.265625 -63.484375 L 10.640625 -63.484375 L 32.640625 -13.625 Z M 54.15625 -63.484375 "/></g></g><g style="fill:#013e88;fill-opacity:1;"><g transform="translate(472.877807, 361.023163)"><path style="stroke:none" d="M 90.265625 -63.484375 L 98.75 -63.484375 L 71.25 0 L 69.703125 0 L 49.5 -45.546875 L 29.171875 0 L 27.5 0 L 0.484375 -63.484375 L 8.96875 -63.484375 L 28.328125 -17.453125 L 48.65625 -63.484375 L 50.09375 -63.484375 L 70.53125 -17.453125 Z M 90.265625 -63.484375 "/></g></g><g style="fill:#013e88;fill-opacity:1;"><g transform="translate(566.361347, 361.023163)"><path style="stroke:none" d="M 38.609375 1.546875 C 32.554688 1.546875 27.054688 0.0351562 22.109375 -2.984375 C 17.171875 -6.015625 13.265625 -10.097656 10.390625 -15.234375 C 7.523438 -20.378906 6.09375 -25.941406 6.09375 -31.921875 C 6.09375 -37.898438 7.546875 -43.414062 10.453125 -48.46875 C 13.367188 -53.53125 17.335938 -57.578125 22.359375 -60.609375 C 27.378906 -63.640625 32.878906 -65.15625 38.859375 -65.15625 C 44.035156 -65.15625 48.773438 -64.035156 53.078125 -61.796875 C 57.378906 -59.566406 61.085938 -56.265625 64.203125 -51.890625 L 64.203125 -63.484375 L 72.203125 -63.484375 L 72.203125 0 L 64.203125 0 L 64.203125 -10.875 C 60.773438 -6.726562 56.90625 -3.617188 52.59375 -1.546875 C 48.289062 0.515625 43.628906 1.546875 38.609375 1.546875 Z M 39.453125 -5.859375 C 43.835938 -5.859375 47.976562 -6.910156 51.875 -9.015625 C 55.78125 -11.128906 58.910156 -14.117188 61.265625 -17.984375 C 63.617188 -21.859375 64.796875 -26.34375 64.796875 -31.4375 C 64.796875 -36.300781 63.675781 -40.6875 61.4375 -44.59375 C 59.207031 -48.5 56.179688 -51.585938 52.359375 -53.859375 C 48.535156 -56.128906 44.269531 -57.265625 39.5625 -57.265625 C 34.863281 -57.265625 30.582031 -56.085938 26.71875 -53.734375 C 22.851562 -51.378906 19.84375 -48.25 17.6875 -44.34375 C 15.539062 -40.445312 14.46875 -36.226562 14.46875 -31.6875 C 14.46875 -27.132812 15.5625 -22.882812 17.75 -18.9375 C 19.945312 -15 22.957031 -11.832031 26.78125 -9.4375 C 30.601562 -7.050781 34.828125 -5.859375 39.453125 -5.859375 Z M 39.453125 -5.859375 "/></g></g><g style="fill:#013e88;fill-opacity:1;"><g transform="translate(185.840902, 461.337392)"><path style="stroke:none" d=""/></g></g><g style="fill:#013e88;fill-opacity:1;"><g transform="translate(216.68328, 461.337392)"><path style="stroke:none" d=""/></g></g><g style="fill:#013e88;fill-opacity:1;"><g transform="translate(247.531349, 461.337392)"><path style="stroke:none" d="M 9.5625 -87.984375 L 17.6875 -87.984375 L 17.6875 -37.890625 L 46.984375 -63.484375 L 59.0625 -63.484375 L 24.265625 -33.234375 L 61.09375 0 L 49.5 0 L 17.6875 -28.578125 L 17.6875 0 L 9.5625 0 Z M 9.5625 -87.984375 "/></g></g><g style="fill:#013e88;fill-opacity:1;"><g transform="translate(301.445696, 461.337392)"><path style="stroke:none" d="M 38.609375 1.546875 C 32.554688 1.546875 27.054688 0.0351562 22.109375 -2.984375 C 17.171875 -6.015625 13.265625 -10.097656 10.390625 -15.234375 C 7.523438 -20.378906 6.09375 -25.941406 6.09375 -31.921875 C 6.09375 -37.898438 7.546875 -43.414062 10.453125 -48.46875 C 13.367188 -53.53125 17.335938 -57.578125 22.359375 -60.609375 C 27.378906 -63.640625 32.878906 -65.15625 38.859375 -65.15625 C 44.035156 -65.15625 48.773438 -64.035156 53.078125 -61.796875 C 57.378906 -59.566406 61.085938 -56.265625 64.203125 -51.890625 L 64.203125 -63.484375 L 72.203125 -63.484375 L 72.203125 0 L 64.203125 0 L 64.203125 -10.875 C 60.773438 -6.726562 56.90625 -3.617188 52.59375 -1.546875 C 48.289062 0.515625 43.628906 1.546875 38.609375 1.546875 Z M 39.453125 -5.859375 C 43.835938 -5.859375 47.976562 -6.910156 51.875 -9.015625 C 55.78125 -11.128906 58.910156 -14.117188 61.265625 -17.984375 C 63.617188 -21.859375 64.796875 -26.34375 64.796875 -31.4375 C 64.796875 -36.300781 63.675781 -40.6875 61.4375 -44.59375 C 59.207031 -48.5 56.179688 -51.585938 52.359375 -53.859375 C 48.535156 -56.128906 44.269531 -57.265625 39.5625 -57.265625 C 34.863281 -57.265625 30.582031 -56.085938 26.71875 -53.734375 C 22.851562 -51.378906 19.84375 -48.25 17.6875 -44.34375 C 15.539062 -40.445312 14.46875 -36.226562 14.46875 -31.6875 C 14.46875 -27.132812 15.5625 -22.882812 17.75 -18.9375 C 19.945312 -15 22.957031 -11.832031 26.78125 -9.4375 C 30.601562 -7.050781 34.828125 -5.859375 39.453125 -5.859375 Z M 39.453125 -5.859375 "/></g></g><g style="fill:#013e88;fill-opacity:1;"><g transform="translate(380.942581, 461.337392)"><path style="stroke:none" d="M 16.375 -56.3125 L 5.140625 -56.3125 L 5.140625 -63.484375 L 16.375 -63.484375 L 16.375 -87.15625 L 24.5 -87.15625 L 24.5 -63.484375 L 37.53125 -63.484375 L 37.53125 -56.3125 L 24.5 -56.3125 L 24.5 0 L 16.375 0 Z M 16.375 -56.3125 "/></g></g><g style="fill:#013e88;fill-opacity:1;"><g transform="translate(415.610318, 461.337392)"><path style="stroke:none" d="M 39.21875 1.671875 C 33 1.671875 27.359375 0.175781 22.296875 -2.8125 C 17.234375 -5.800781 13.265625 -9.84375 10.390625 -14.9375 C 7.523438 -20.039062 6.09375 -25.582031 6.09375 -31.5625 C 6.09375 -37.539062 7.523438 -43.117188 10.390625 -48.296875 C 13.265625 -53.472656 17.234375 -57.578125 22.296875 -60.609375 C 27.359375 -63.640625 33 -65.15625 39.21875 -65.15625 C 45.425781 -65.15625 51.0625 -63.640625 56.125 -60.609375 C 61.1875 -57.578125 65.148438 -53.472656 68.015625 -48.296875 C 70.890625 -43.117188 72.328125 -37.539062 72.328125 -31.5625 C 72.328125 -25.582031 70.890625 -20.039062 68.015625 -14.9375 C 65.148438 -9.84375 61.1875 -5.800781 56.125 -2.8125 C 51.0625 0.175781 45.425781 1.671875 39.21875 1.671875 Z M 39.21875 -6.21875 C 43.832031 -6.21875 48.03125 -7.351562 51.8125 -9.625 C 55.601562 -11.894531 58.570312 -14.960938 60.71875 -18.828125 C 62.875 -22.691406 63.953125 -26.894531 63.953125 -31.4375 C 63.953125 -36.0625 62.835938 -40.34375 60.609375 -44.28125 C 58.378906 -48.226562 55.367188 -51.378906 51.578125 -53.734375 C 47.796875 -56.085938 43.675781 -57.265625 39.21875 -57.265625 C 34.75 -57.265625 30.617188 -56.085938 26.828125 -53.734375 C 23.046875 -51.378906 20.039062 -48.226562 17.8125 -44.28125 C 15.582031 -40.34375 14.46875 -36.0625 14.46875 -31.4375 C 14.46875 -26.8125 15.539062 -22.585938 17.6875 -18.765625 C 19.84375 -14.941406 22.789062 -11.894531 26.53125 -9.625 C 30.28125 -7.351562 34.507812 -6.21875 39.21875 -6.21875 Z M 39.21875 -6.21875 "/></g></g><g style="fill:#013e88;fill-opacity:1;"><g transform="translate(491.64042, 461.337392)"><path style="stroke:none" d="M 16.015625 -87.984375 L 16.015625 0 L 7.890625 0 L 7.890625 -87.984375 Z M 16.015625 -87.984375 "/></g></g><g style="fill:#013e88;fill-opacity:1;"><g transform="translate(513.277886, 461.337392)"><path style="stroke:none" d="M 13.15625 -76.15625 C 11.320312 -76.15625 9.742188 -76.832031 8.421875 -78.1875 C 7.109375 -79.539062 6.453125 -81.132812 6.453125 -82.96875 C 6.453125 -84.875 7.109375 -86.460938 8.421875 -87.734375 C 9.742188 -89.015625 11.320312 -89.65625 13.15625 -89.65625 C 14.988281 -89.65625 16.582031 -89 17.9375 -87.6875 C 19.289062 -86.375 19.96875 -84.800781 19.96875 -82.96875 C 19.96875 -81.132812 19.289062 -79.539062 17.9375 -78.1875 C 16.582031 -76.832031 14.988281 -76.15625 13.15625 -76.15625 Z M 9.203125 -63.484375 L 17.328125 -63.484375 L 17.328125 0 L 9.203125 0 Z M 9.203125 -63.484375 "/></g></g><g style="fill:#013e88;fill-opacity:1;"><g transform="translate(537.42577, 461.337392)"><path style="stroke:none" d="M 39.6875 1.671875 C 33.226562 1.671875 27.445312 0.195312 22.34375 -2.75 C 17.25 -5.695312 13.265625 -9.71875 10.390625 -14.8125 C 7.523438 -19.914062 6.09375 -25.578125 6.09375 -31.796875 C 6.09375 -38.097656 7.546875 -43.773438 10.453125 -48.828125 C 13.367188 -53.890625 17.414062 -57.875 22.59375 -60.78125 C 27.769531 -63.695312 33.546875 -65.15625 39.921875 -65.15625 C 45.984375 -65.15625 51.503906 -63.9375 56.484375 -61.5 C 61.460938 -59.070312 65.46875 -55.707031 68.5 -51.40625 L 62.515625 -46.265625 C 59.492188 -49.929688 56.128906 -52.679688 52.421875 -54.515625 C 48.710938 -56.347656 44.425781 -57.265625 39.5625 -57.265625 C 34.78125 -57.265625 30.5 -56.144531 26.71875 -53.90625 C 22.9375 -51.675781 19.945312 -48.628906 17.75 -44.765625 C 15.5625 -40.898438 14.46875 -36.578125 14.46875 -31.796875 C 14.46875 -26.859375 15.539062 -22.4375 17.6875 -18.53125 C 19.84375 -14.625 22.851562 -11.59375 26.71875 -9.4375 C 30.582031 -7.289062 34.90625 -6.21875 39.6875 -6.21875 C 48.9375 -6.21875 56.546875 -9.800781 62.515625 -16.96875 L 68.625 -12.1875 C 65.195312 -7.8125 61.03125 -4.40625 56.125 -1.96875 C 51.226562 0.457031 45.75 1.671875 39.6875 1.671875 Z M 39.6875 1.671875 "/></g></g><g style="fill:#013e88;fill-opacity:1;"><g transform="translate(609.03274, 461.337392)"><path style="stroke:none" d="M 9.5625 -87.984375 L 17.6875 -87.984375 L 17.6875 -37.890625 L 46.984375 -63.484375 L 59.0625 -63.484375 L 24.265625 -33.234375 L 61.09375 0 L 49.5 0 L 17.6875 -28.578125 L 17.6875 0 L 9.5625 0 Z M 9.5625 -87.984375 "/></g></g><g style="fill:#013e88;fill-opacity:1;"><g transform="translate(662.947087, 461.337392)"><path style="stroke:none" d="M 38.609375 1.546875 C 32.554688 1.546875 27.054688 0.0351562 22.109375 -2.984375 C 17.171875 -6.015625 13.265625 -10.097656 10.390625 -15.234375 C 7.523438 -20.378906 6.09375 -25.941406 6.09375 -31.921875 C 6.09375 -37.898438 7.546875 -43.414062 10.453125 -48.46875 C 13.367188 -53.53125 17.335938 -57.578125 22.359375 -60.609375 C 27.378906 -63.640625 32.878906 -65.15625 38.859375 -65.15625 C 44.035156 -65.15625 48.773438 -64.035156 53.078125 -61.796875 C 57.378906 -59.566406 61.085938 -56.265625 64.203125 -51.890625 L 64.203125 -63.484375 L 72.203125 -63.484375 L 72.203125 0 L 64.203125 0 L 64.203125 -10.875 C 60.773438 -6.726562 56.90625 -3.617188 52.59375 -1.546875 C 48.289062 0.515625 43.628906 1.546875 38.609375 1.546875 Z M 39.453125 -5.859375 C 43.835938 -5.859375 47.976562 -6.910156 51.875 -9.015625 C 55.78125 -11.128906 58.910156 -14.117188 61.265625 -17.984375 C 63.617188 -21.859375 64.796875 -26.34375 64.796875 -31.4375 C 64.796875 -36.300781 63.675781 -40.6875 61.4375 -44.59375 C 59.207031 -48.5 56.179688 -51.585938 52.359375 -53.859375 C 48.535156 -56.128906 44.269531 -57.265625 39.5625 -57.265625 C 34.863281 -57.265625 30.582031 -56.085938 26.71875 -53.734375 C 22.851562 -51.378906 19.84375 -48.25 17.6875 -44.34375 C 15.539062 -40.445312 14.46875 -36.226562 14.46875 -31.6875 C 14.46875 -27.132812 15.5625 -22.882812 17.75 -18.9375 C 19.945312 -15 22.957031 -11.832031 26.78125 -9.4375 C 30.601562 -7.050781 34.828125 -5.859375 39.453125 -5.859375 Z M 39.453125 -5.859375 "/></g></g><g style="fill:#013e88;fill-opacity:1;"><g transform="translate(742.443972, 461.337392)"><path style="stroke:none" d="M 15.0625 1.671875 C 13.070312 1.671875 11.378906 0.957031 9.984375 -0.46875 C 8.585938 -1.90625 7.890625 -3.625 7.890625 -5.625 C 7.890625 -6.894531 8.207031 -8.085938 8.84375 -9.203125 C 9.476562 -10.316406 10.351562 -11.210938 11.46875 -11.890625 C 12.59375 -12.566406 13.789062 -12.90625 15.0625 -12.90625 C 16.332031 -12.90625 17.503906 -12.585938 18.578125 -11.953125 C 19.660156 -11.316406 20.539062 -10.441406 21.21875 -9.328125 C 21.894531 -8.210938 22.234375 -6.976562 22.234375 -5.625 C 22.234375 -3.625 21.535156 -1.90625 20.140625 -0.46875 C 18.742188 0.957031 17.050781 1.671875 15.0625 1.671875 Z M 15.0625 1.671875 "/></g></g><g style="fill:#013e88;fill-opacity:1;"><g transform="translate(770.297755, 461.337392)"><path style="stroke:none" d="M 17.6875 -63.484375 L 17.6875 -51.890625 C 20.800781 -56.265625 24.507812 -59.566406 28.8125 -61.796875 C 33.113281 -64.035156 37.816406 -65.15625 42.921875 -65.15625 C 48.972656 -65.15625 54.507812 -63.640625 59.53125 -60.609375 C 64.550781 -57.578125 68.515625 -53.53125 71.421875 -48.46875 C 74.335938 -43.414062 75.796875 -37.898438 75.796875 -31.921875 C 75.796875 -25.941406 74.359375 -20.378906 71.484375 -15.234375 C 68.617188 -10.097656 64.691406 -6.015625 59.703125 -2.984375 C 54.722656 0.0351562 49.207031 1.546875 43.15625 1.546875 C 33.03125 1.546875 24.539062 -2.59375 17.6875 -10.875 L 17.6875 23.1875 L 9.5625 23.1875 L 9.5625 -63.484375 Z M 42.3125 -5.859375 C 46.9375 -5.859375 51.160156 -7.03125 54.984375 -9.375 C 58.816406 -11.726562 61.847656 -14.894531 64.078125 -18.875 C 66.304688 -22.863281 67.421875 -27.132812 67.421875 -31.6875 C 67.421875 -36.226562 66.34375 -40.445312 64.1875 -44.34375 C 62.039062 -48.25 59.035156 -51.378906 55.171875 -53.734375 C 51.304688 -56.085938 47.019531 -57.265625 42.3125 -57.265625 C 37.613281 -57.265625 33.351562 -56.128906 29.53125 -53.859375 C 25.707031 -51.585938 22.675781 -48.5 20.4375 -44.59375 C 18.207031 -40.6875 17.09375 -36.300781 17.09375 -31.4375 C 17.09375 -26.34375 18.269531 -21.859375 20.625 -17.984375 C 22.976562 -14.117188 26.085938 -11.128906 29.953125 -9.015625 C 33.816406 -6.910156 37.9375 -5.859375 42.3125 -5.859375 Z M 42.3125 -5.859375 "/></g></g><g style="fill:#013e88;fill-opacity:1;"><g transform="translate(849.794639, 461.337392)"><path style="stroke:none" d="M 16.015625 -87.984375 L 16.015625 0 L 7.890625 0 L 7.890625 -87.984375 Z M 16.015625 -87.984375 "/></g></g><g style="fill:#013e88;fill-opacity:1;"><g transform="translate(389.49569, 376.245811)"><path style="stroke:none" d="M 16.046875 -88.140625 L 16.046875 0 L 7.90625 0 L 7.90625 -88.140625 Z M 16.046875 -88.140625 "/></g></g></g></svg>